Coordinates
version=1
nRows=14
nColumns=24
inDegrees=yes

Units are S.I. units (second, meters, Newtons, ...)
Angles are in degrees.

endheader
time	pelvis_tilt	pelvis_list	pelvis_rotation	pelvis_tx	pelvis_ty	pelvis_tz	hip_flexion_r	hip_adduction_r	hip_rotation_r	knee_angle_r	ankle_angle_r	subtalar_angle_r	mtp_angle_r	hip_flexion_l	hip_adduction_l	hip_rotation_l	knee_angle_l	ankle_angle_l	subtalar_angle_l	mtp_angle_l	lumbar_extension	lumbar_bending	lumbar_rotation
      3.90000000	     58.86419716	      3.20491817	     -1.37406533	      0.55867405	      1.00155920	     -0.29033440	     -3.51249347	    -15.40688220	     11.40054214	    -46.38625601	     -4.80140237	     14.20288605	    -74.22585119	     -1.90954095	     -7.92801695	      1.41907257	    -57.64770458	     -2.05228873	      9.37916609	    -28.82665784	      0.00000000	      0.00000000	      0.00000000
      3.91000000	     58.88294332	      3.21155663	     -1.36522049	      0.55869245	      1.00156738	     -0.29034975	     -3.53899528	    -15.45115275	     11.38867494	    -46.57791987	     -4.82270416	     14.19975038	    -74.34333582	     -1.92645170	     -7.92265302	      1.42679697	    -57.65680877	     -2.04984300	      9.34643443	    -28.89918768	      0.00000000	      0.00000000	      0.00000000
      3.92000000	     58.88455154	      3.21387421	     -1.36440215	      0.55870665	      1.00156610	     -0.29036344	     -3.54450410	    -15.49565830	     11.38357220	    -46.75986260	     -4.84499230	     14.19660155	    -74.44291027	     -1.92766689	     -7.92330516	      1.43006510	    -57.66533221	     -2.04800634	      9.31626281	    -28.95967638	      0.00000000	      0.00000000	      0.00000000
      3.93000000	     58.87233631	      3.21297041	     -1.36774469	      0.55871405	      1.00154859	     -0.29036423	     -3.53301426	    -15.53967956	     11.38672004	    -46.92965041	     -4.86517334	     14.18970482	    -74.53155404	     -1.91530879	     -7.92768960	      1.42820429	    -57.67354868	     -2.04694627	      9.29056786	    -29.00667975	      0.00000000	      0.00000000	      0.00000000
      3.94000000	     58.85131972	      3.20983895	     -1.37126515	      0.55872650	      1.00151941	     -0.29035090	     -3.51121979	    -15.58343498	     11.39988696	    -47.08473135	     -4.88140749	     14.17643208	    -74.61624359	     -1.89281263	     -7.93369822	      1.42143696	    -57.68122963	     -2.04636774	      9.27048961	    -29.04004264	      0.00000000	      0.00000000	      0.00000000
      3.95000000	     58.82622387	      3.20599560	     -1.37329742	      0.55874236	      1.00149335	     -0.29033883	     -3.48678731	    -15.62784064	     11.42429933	    -47.22279333	     -4.89344650	     14.15560463	    -74.70268063	     -1.86467212	     -7.94050288	      1.41192352	    -57.68806010	     -2.04596582	      9.25641839	    -29.06057707	      0.00000000	      0.00000000	      0.00000000
      3.96000000	     58.80080609	      3.20285177	     -1.37420763	      0.55875557	      1.00147689	     -0.29033877	     -3.46626062	    -15.67390473	     11.45990526	    -47.34198314	     -4.90235183	     14.12721593	    -74.79448069	     -1.83561445	     -7.94789442	      1.40279322	    -57.69376558	     -2.04551744	      9.24808210	    -29.06974502	      0.00000000	      0.00000000	      0.00000000
      3.97000000	     58.77797057	      3.20075592	     -1.37480461	      0.55876878	      1.00146232	     -0.29034286	     -3.45353181	    -15.72217603	     11.50502821	    -47.44125620	     -4.90977394	     14.09175909	    -74.89290093	     -1.80943702	     -7.95521214	      1.39626203	    -57.69799363	     -2.04473811	      9.24465092	    -29.06938853	      0.00000000	      0.00000000	      0.00000000
      3.98000000	     58.75955832	      3.19926689	     -1.37570079	      0.55878425	      1.00144205	     -0.29034035	     -3.44953673	    -15.77240724	     11.55648514	    -47.52075842	     -4.91718867	     14.04965668	    -74.99697058	     -1.78820962	     -7.96142110	      1.39270305	    -57.70038849	     -2.04320260	      9.24489535	    -29.06154603	      0.00000000	      0.00000000	      0.00000000
      3.99000000	     58.74603033	      3.19803191	     -1.37745480	      0.55879900	      1.00141574	     -0.29033372	     -3.45282535	    -15.82364440	     11.61039229	    -47.58175125	     -4.92544664	     14.00116157	    -75.10381155	     -1.77213726	     -7.96592082	      1.39103748	    -57.70083121	     -2.04045145	      9.24743065	    -29.04836779	      0.00000000	      0.00000000	      0.00000000
      4.00000000	     58.73644640	      3.19682310	     -1.38032658	      0.55881031	      1.00138874	     -0.29033048	     -3.46045436	    -15.87495880	     11.66362709	    -47.62601873	     -4.93473923	     13.94662648	    -75.20906536	     -1.76006255	     -7.96899851	      1.38975250	    -57.69967036	     -2.03623286	      9.25100526	    -29.03210700	      0.00000000	      0.00000000	      0.00000000
      4.01000000	     58.72872444	      3.19507383	     -1.38392002	      0.55881727	      1.00136756	     -0.29032860	     -3.46913335	    -15.92607823	     11.71502594	    -47.65520567	     -4.94487039	     13.88682412	    -75.30746138	     -1.75017041	     -7.97160427	      1.38781597	    -57.69772620	     -2.03073563	      9.25471617	    -29.01513108	      0.00000000	      0.00000000	      0.00000000
      4.02000000	     58.72048678	      3.19220530	     -1.38756421	      0.55882319	      1.00135376	     -0.29032182	     -3.47638339	    -15.97707371	     11.76542490	    -47.67041084	     -4.95561456	     13.82308437	    -75.39355236	     -1.74024885	     -7.97489551	      1.38512995	    -57.69582206	     -2.02467428	      9.25805672	    -28.99988313	      0.00000000	      0.00000000	      0.00000000
      4.03000000	     58.71015586	      3.18828035	     -1.39082249	      0.55883545	      1.00134053	     -0.29031218	     -3.48107998	    -16.02765893	     11.81678034	    -47.67208034	     -4.96694761	     13.75713915	    -75.46256623	     -1.72793053	     -7.97974913	      1.38236753	    -57.69419461	     -2.01916522	      9.26080726	    -28.98873997	      0.00000000	      0.00000000	      0.00000000
